<svg xmlns="http://www.w3.org/2000/svg" width="51.801" height="50.509" viewBox="0 0 13.706 13.364"><defs><clipPath id="a" clipPathUnits="userSpaceOnUse"><path d="M272.218 1069.28h259.92V809.357h-259.92z"/></clipPath><clipPath id="b" clipPathUnits="userSpaceOnUse"><path d="M272.218 1069.28h259.92V809.357h-259.92z"/></clipPath><clipPath id="c" clipPathUnits="userSpaceOnUse"><path d="M585.194 1238.49h836.636V373.288H585.194z"/></clipPath><clipPath id="d" clipPathUnits="userSpaceOnUse"><path d="M666.508 1296.05h656.002V487.379H666.508z"/></clipPath><clipPath id="e" clipPathUnits="userSpaceOnUse"><path d="M666.508 1296.05h656.002V487.379H666.508z"/></clipPath><clipPath id="g" clipPathUnits="userSpaceOnUse"><path d="M719.421 1101.77h575.519V514.729H719.421z"/></clipPath><clipPath id="h" clipPathUnits="userSpaceOnUse"><path d="M853.809 956.816h303.841v-303.84H853.809z"/></clipPath><clipPath id="i" clipPathUnits="userSpaceOnUse"><path d="M853.809 956.816h303.841v-303.84H853.809z"/></clipPath><clipPath id="j" clipPathUnits="userSpaceOnUse"><path d="M381.123 898.465H1081.8V245.711H381.123z"/></clipPath><clipPath id="k" clipPathUnits="userSpaceOnUse"><path d="M1050.1 829.11h619.67V395.432H1050.1z"/></clipPath><linearGradient id="f" spreadMethod="pad" gradientTransform="matrix(0 210.20731 210.20731 0 994.508 896.046)" gradientUnits="userSpaceOnUse" y2="0" x2="1" y1="0" x1="0"><stop offset="0" stop-color="#231f20"/><stop offset=".29" stop-color="#636061"/><stop offset="1" stop-color="#fff"/></linearGradient></defs><path d="M.85 13.364h12.006c.47 0 .85-.38.85-.85V.85a.85.85 0 00-.85-.85H.85A.85.85 0 000 .85v11.664c0 .47.38.85.85.85" fill="#ed1c24"/><path d="M12.406 2.056v4.348h-1.057l-1.331-2.268-.08-.168v2.427H8.896v-4.34h1.06l1.349 2.35.066.137V2.056zM9.936 11.306h-1.04V6.978h1.04zM3.095 5.47c.28 0 .625-.093.625-.44 0-.391-.374-.454-.606-.454h-.441V3.76h.4c.359 0 .536-.11.536-.426 0-.315-.223-.415-.536-.415h-.756v2.551zm1.646-.702c.046.183.036.392.036.392s.027.25-.126.546c-.19.365-.476.505-.476.505s-.161.095-.406.142c-.261.05-.595.05-.595.05h-1.87V2.057h2.26s.324.008.562.12c.24.114.394.331.394.331s.181.246.201.656c.017.323-.158.604-.158.604s-.058.128-.17.22a.994.994 0 01-.272.14s.246.047.416.265c.116.147.158.195.204.376M3.952 9.159c0-.908-.428-1.277-1.248-1.277h-.381v2.499h.681c.367 0 .948-.14.948-1.222m1.038.046c0 1.525-1.093 2.102-1.897 2.102h-1.79V6.97h1.801c.679 0 1.886.33 1.886 2.235M6.807 3.57l.864 2.825h1.108L7.272 2.058H6.219l-1.51 4.337h2.458v-.942H6.115l.597-1.877.05-.189zM6.807 8.483l.864 2.825h1.108L7.272 6.971H6.219l-1.51 4.337h2.458v-.942H6.115l.597-1.877.05-.188z" fill="#fff"/></svg>