<?xml version="1.0" encoding="UTF-8" standalone="no"?>
<!-- Generator: Adobe Illustrator 13.0.0, SVG Export Plug-In . SVG Version: 6.00 Build 14948)  -->
<svg
   xmlns:dc="http://purl.org/dc/elements/1.1/"
   xmlns:cc="http://creativecommons.org/ns#"
   xmlns:rdf="http://www.w3.org/1999/02/22-rdf-syntax-ns#"
   xmlns:svg="http://www.w3.org/2000/svg"
   xmlns="http://www.w3.org/2000/svg"
   xmlns:sodipodi="http://sodipodi.sourceforge.net/DTD/sodipodi-0.dtd"
   xmlns:inkscape="http://www.inkscape.org/namespaces/inkscape"
   version="1.0"
   x="0px"
   y="0px"
   width="230"
   height="53"
   viewBox="0 0 456.01 96.505"
   xml:space="preserve"
   id="svg2"
   sodipodi:version="0.32"
   inkscape:version="0.46"
   sodipodi:docname="Millercoors.svg"
   inkscape:output_extension="org.inkscape.output.svg.inkscape"><metadata
   id="metadata63"><rdf:RDF><cc:Work
       rdf:about=""><dc:format>image/svg+xml</dc:format><dc:type
         rdf:resource="http://purl.org/dc/dcmitype/StillImage" /></cc:Work></rdf:RDF></metadata><defs
   id="defs61"><inkscape:perspective
     sodipodi:type="inkscape:persp3d"
     inkscape:vp_x="0 : 48.252499 : 1"
     inkscape:vp_y="0 : 1000 : 0"
     inkscape:vp_z="456.01001 : 48.252499 : 1"
     inkscape:persp3d-origin="228.005 : 32.168332 : 1"
     id="perspective65" /></defs><sodipodi:namedview
   inkscape:window-height="904"
   inkscape:window-width="1280"
   inkscape:pageshadow="2"
   inkscape:pageopacity="0.0"
   guidetolerance="10.0"
   gridtolerance="10.0"
   objecttolerance="10.0"
   borderopacity="1.0"
   bordercolor="#666666"
   pagecolor="#ffffff"
   id="base"
   showgrid="false"
   inkscape:zoom="3.3741899"
   inkscape:cx="110.68972"
   inkscape:cy="9.6560471"
   inkscape:window-x="-4"
   inkscape:window-y="-4"
   inkscape:current-layer="svg2" />
<g
   id="Layer_2"
   transform="matrix(0.9782609,0,0,0.9782609,5.8759354,0.9227477)">
	<radialGradient
   id="SVGID_1_"
   cx="59.1255"
   cy="66.208504"
   r="45.115501"
   gradientUnits="userSpaceOnUse">
		<stop
   offset="0"
   style="stop-color:#FFE04D"
   id="stop6" />
		<stop
   offset="0.4402"
   style="stop-color:#FEDE4B"
   id="stop8" />
		<stop
   offset="0.5988"
   style="stop-color:#FBD745"
   id="stop10" />
		<stop
   offset="0.7118"
   style="stop-color:#F5CC3B"
   id="stop12" />
		<stop
   offset="0.8025"
   style="stop-color:#EDBB2C"
   id="stop14" />
		<stop
   offset="0.868"
   style="stop-color:#E4A91C"
   id="stop16" />
	</radialGradient>
	<circle
   style="fill:url(#SVGID_1_)"
   cx="54.286999"
   cy="58.575001"
   r="36.285999"
   id="circle18"
   sodipodi:cx="54.286999"
   sodipodi:cy="58.575001"
   sodipodi:rx="36.285999"
   sodipodi:ry="36.285999" />
</g>
<g
   id="Layer_3"
   transform="matrix(0.9782609,0,0,0.9782609,5.8759354,0.9227477)">
	<path
   style="fill:#e4b53b"
   d="M 60.683,44.174 C 47.274,44.174 36.403,55.088 36.403,68.55 C 36.403,82.012 47.274,92.927 60.683,92.927 C 74.092,92.927 84.963,82.013 84.963,68.55 C 84.963,55.087 74.092,44.174 60.683,44.174 z M 60.683,87.897 C 49.945,87.897 41.24,79.192 41.24,68.454 C 41.24,57.716 49.945,49.011 60.683,49.011 C 71.421,49.011 80.126,57.716 80.126,68.454 C 80.126,79.192 71.421,87.897 60.683,87.897 z"
   id="path21" />
</g>
<g
   id="Layer_4"
   transform="matrix(0.9782609,0,0,0.9782609,5.8759354,0.9227477)">
	<path
   style="fill:#717275"
   d="M 48.253,0 C 21.604,0 0,21.604 0,48.253 C 0,74.903 21.604,96.505 48.253,96.505 C 74.902,96.505 96.506,74.902 96.506,48.253 C 96.506,21.604 74.902,0 48.253,0 z M 48.253,90.315 C 25.023,90.315 6.191,71.483 6.191,48.253 C 6.191,25.023 25.023,6.191 48.253,6.191 C 71.483,6.191 90.315,25.023 90.315,48.253 C 90.315,71.483 71.483,90.315 48.253,90.315 z"
   id="path24" />
</g>
<g
   id="Layer_5"
   transform="matrix(0.9782609,0,0,0.9782609,5.8759354,0.9227477)">
	<g
   id="g27">
		<polygon
   style="fill:#717275"
   points="153.437,40.885 140.193,75.515 126.95,40.885 113.595,40.885 113.595,90.207 121.911,90.207 121.911,48.467 137.204,90.207 143.183,90.207 158.476,48.467 158.476,90.207 166.792,90.207 166.792,40.885 153.437,40.885 "
   id="polygon29" />
		<rect
   x="174.51199"
   y="56.724998"
   style="fill:#717275"
   width="8.3430004"
   height="33.480999"
   id="rect31" />
		<ellipse
   style="fill:#717275"
   cx="178.76801"
   cy="45.431999"
   rx="5.3930001"
   ry="5.1269999"
   id="ellipse33"
   sodipodi:cx="178.76801"
   sodipodi:cy="45.431999"
   sodipodi:rx="5.3930001"
   sodipodi:ry="5.1269999" />
		<rect
   x="189.812"
   y="37.563999"
   style="fill:#717275"
   width="8.3430004"
   height="52.643002"
   id="rect35" />
		<rect
   x="205.271"
   y="37.563999"
   style="fill:#717275"
   width="8.3430004"
   height="52.643002"
   id="rect37" />
		<path
   style="fill:#717275"
   d="M 235.913,55.975 C 225.613,55.975 217.679,63.446 217.679,73.58 C 217.679,84.047 226.06,91.201 235.97,91.201 C 245.368,91.201 250.065,84.414 250.065,84.414 L 244.087,79.867 C 244.087,79.867 241.427,84.414 235.212,84.414 C 226.748,84.414 226.083,76.417 226.083,76.417 L 251.68,76.434 C 251.679,76.434 253.353,55.975 235.913,55.975 z M 226.03,70.259 C 226.253,68.332 227.798,62.178 234.782,62.178 C 238.28,62.178 243.241,63.76 243.345,70.259 L 226.03,70.259 z"
   id="path39" />
		<path
   style="fill:#717275"
   d="M 276.75,56.458 C 270.384,54.112 263.96,59.934 263.96,63.294 L 263.96,56.725 L 255.617,56.725 L 255.617,90.206 L 263.96,90.206 L 263.96,73.548 C 263.96,67.515 267.236,62.892 275.376,64.016 C 275.525,61.342 275.997,58.814 276.75,56.458 z"
   id="path41" />
		<path
   style="fill:#717275"
   d="M 312.363,80.014 C 308.425,83.214 303.636,83.242 302.649,83.242 C 293.939,83.242 287.519,75.627 287.519,65.778 C 287.519,52.856 297.194,48.454 302.673,48.495 C 307.412,48.531 310.668,50.105 312.906,52.291 L 320.096,46.466 C 316.203,42.157 310.524,40.015 303.381,40.015 C 289.117,40.015 277.554,50.495 277.554,65.843 C 277.554,80.923 288.236,91.67 303.381,91.67 C 309.031,91.67 313.766,90.479 317.425,87.908 C 315.133,85.738 313.389,83.044 312.363,80.014 z"
   id="path43" />
		<path
   style="fill:#717275"
   d="M 369.837,55.969 C 359.363,55.969 351.555,63.485 351.555,73.575 C 351.555,83.373 359.35,91.181 369.837,91.181 C 380.518,91.181 388.119,83.317 388.119,73.575 C 388.12,63.528 380.273,55.969 369.837,55.969 z M 369.862,83.687 C 364.39,83.687 359.955,79.16 359.955,73.576 C 359.955,67.992 364.391,63.466 369.862,63.466 C 375.333,63.466 379.768,67.992 379.768,73.576 C 379.768,79.16 375.333,83.687 369.862,83.687 z"
   id="path45" />
		<path
   style="fill:#717275"
   d="M 332.015,55.969 C 321.541,55.969 313.733,63.485 313.733,73.575 C 313.733,83.373 321.528,91.181 332.015,91.181 C 342.697,91.181 350.297,83.317 350.297,73.575 C 350.297,63.528 342.451,55.969 332.015,55.969 z M 332.04,83.687 C 326.568,83.687 322.133,79.16 322.133,73.576 C 322.133,67.992 326.569,63.466 332.04,63.466 C 337.511,63.466 341.947,67.992 341.947,73.576 C 341.947,79.16 337.511,83.687 332.04,83.687 z"
   id="path47" />
		<path
   style="fill:#717275"
   d="M 410.234,63.927 L 410.327,63.776 C 410.863,60.99 412.301,58.864 414.272,57.307 C 414.152,57.22 413.63,56.875 412.356,56.458 C 405.991,54.112 399.566,59.934 399.566,63.294 L 399.566,56.725 L 391.223,56.725 L 391.223,90.206 L 399.566,90.206 L 399.566,73.548 C 399.566,67.704 402.641,63.182 410.234,63.927 z"
   id="path49" />
		<path
   style="fill:#717275"
   d="M 425.796,55.975 C 431.503,55.971 435.518,58.248 437.646,61.053 L 432.084,66.083 C 432.084,66.083 430.148,62.601 425.555,62.601 C 421.298,62.698 420.573,65.503 420.573,66.229 C 420.573,72.229 438.711,67.129 438.711,80.593 C 438.711,88.477 430.585,91.186 424.298,91.186 C 418.01,91.186 414.722,89.299 411.239,86.059 L 416.801,80.739 C 416.801,80.739 420.041,84.947 424.781,84.947 C 429.521,84.85 430.391,81.899 430.391,81.077 C 430.391,73.725 412.351,79.627 412.351,66.858 C 412.468,59.013 419.267,55.975 425.796,55.975 z"
   id="path51" />
	</g>
</g>
<g
   id="Layer_6"
   transform="matrix(0.9782609,0,0,0.9782609,5.8759354,0.9227477)">
	<g
   id="g54">
		<polygon
   style="fill:#717275"
   points="454.119,56.75 452.243,61.985 450.367,56.75 448.475,56.75 448.475,63.537 449.653,63.537 449.653,57.793 451.82,63.537 452.667,63.537 454.833,57.793 454.833,63.537 456.01,63.537 456.01,56.75 454.119,56.75 "
   id="polygon56" />
		<polygon
   style="fill:#717275"
   points="447.125,56.75 441.902,56.75 441.902,57.894 443.845,57.894 443.845,63.508 445.195,63.508 445.195,57.894 447.125,57.894 447.125,56.75 "
   id="polygon58" />
	</g>
</g>
</svg>